<?xml version="1.0" encoding="UTF-8" standalone="no"?>
<svg xmlns:dc="http://purl.org/dc/elements/1.1/" xmlns:cc="http://creativecommons.org/ns#" xmlns:rdf="http://www.w3.org/1999/02/22-rdf-syntax-ns#" xmlns:svg="http://www.w3.org/2000/svg" xmlns="http://www.w3.org/2000/svg" xmlns:sodipodi="http://sodipodi.sourceforge.net/DTD/sodipodi-0.dtd" xmlns:inkscape="http://www.inkscape.org/namespaces/inkscape" width="32px" height="32px" viewBox="0 0 32 32.000001" id="svg2" version="1.1" inkscape:version="0.48.4 r9939" sodipodi:docname="52 bill reciept amount calc calculation ecommerce finance data.svg">
  <defs id="defs4"/>
  <sodipodi:namedview id="base" pagecolor="#ffffff" bordercolor="#666666" borderopacity="1.0" inkscape:pageopacity="0.0" inkscape:pageshadow="2" inkscape:zoom="7.919596" inkscape:cx="-3.0846378" inkscape:cy="29.022163" inkscape:document-units="px" inkscape:current-layer="g7277" showgrid="true" units="px" inkscape:window-width="1366" inkscape:window-height="705" inkscape:window-x="-8" inkscape:window-y="-8" inkscape:window-maximized="1" inkscape:snap-bbox="true" inkscape:bbox-paths="true" inkscape:bbox-nodes="true" inkscape:snap-bbox-edge-midpoints="true" inkscape:snap-bbox-midpoints="true" showguides="false" inkscape:snap-global="true">
    <inkscape:grid type="xygrid" id="grid3336"/>
  </sodipodi:namedview>
  
  <g inkscape:label="Layer 1" inkscape:groupmode="layer" id="layer1" transform="translate(0,-1020.3622)">
    <g style="font-style:normal;font-weight:normal;font-size:35.48073959px;line-height:125%;font-family:sans-serif;letter-spacing:0px;word-spacing:0px;fill:#000000;fill-opacity:1;stroke:none;stroke-width:1px;stroke-linecap:butt;stroke-linejoin:miter;stroke-opacity:1" id="text11970">
      <g style="font-style:normal;font-weight:normal;font-size:44.40242004px;line-height:125%;font-family:sans-serif;letter-spacing:0px;word-spacing:0px;fill:#000000;fill-opacity:1;stroke:none;stroke-width:1px;stroke-linecap:butt;stroke-linejoin:miter;stroke-opacity:1" id="text12257">
        <g id="g3549">
          <g id="text12297" style="font-style:normal;font-weight:normal;font-size:45.12057877px;line-height:125%;font-family:sans-serif;letter-spacing:0px;word-spacing:0px;fill:#000000;fill-opacity:1;stroke:none;stroke-width:1px;stroke-linecap:butt;stroke-linejoin:miter;stroke-opacity:1">
            <g id="g4774">
              <g transform="translate(-9.4480086e-4,-1.2002565e-6)" id="g14823">
                <g id="g7277">
                  <path style="font-size:medium;font-style:normal;font-variant:normal;font-weight:normal;font-stretch:normal;text-indent:0;text-align:start;text-decoration:none;line-height:125%;letter-spacing:0;word-spacing:0;text-transform:none;direction:ltr;block-progression:tb;writing-mode:lr-tb;text-anchor:start;baseline-shift:baseline;color:#000000;fill:#000000;fill-opacity:1;stroke:none;stroke-width:1;marker:none;visibility:visible;display:inline;overflow:visible;enable-background:accumulate;font-family:sans-serif;-inkscape-font-specification:Sans" d="M 9 2 C 7.346641 2 6 3.3467002 6 5 L 6 21 L 2.5 21 A 0.50004995 0.50004995 0 0 0 2 21.5 L 2 23 C 2 25.2074 3.7926483 27 6 27 L 16 27 L 16 29.5 A 0.50004998 0.50004998 0 0 0 16.5 30 L 30.5 30 A 0.50004998 0.50004998 0 0 0 31 29.5 L 31 11.5 A 0.50004998 0.50004998 0 0 0 30.5 11 L 25 11 L 25 5.03125 C 25 3.3649501 23.656575 2 22 2 C 21.946105 2 21.896947 1.997147 21.84375 2 A 0.50004996 0.50004996 0 0 0 21.75 2 L 9 2 z M 9 3 L 19.78125 3 C 19.29225 3.5401292 19 4.2458836 19 5.03125 L 19 11 L 16.5 11 A 0.50004998 0.50004998 0 0 0 16 11.5 L 16 20.96875 L 7 21 L 7 5 C 7 3.8834 7.8833398 3 9 3 z M 21.8125 3 C 21.874741 2.9942312 21.936142 3 22 3 C 23.113423 3 24 3.89565 24 5.03125 L 24 11 L 20 11 L 20 5.03125 C 20 3.96078 20.789508 3.0948161 21.8125 3 z M 8 5 L 8 6 L 9 6 L 9 5 L 8 5 z M 10 5 L 10 6 L 18 6 L 18 5 L 10 5 z M 8 7 L 8 8 L 9 8 L 9 7 L 8 7 z M 10 7 L 10 8 L 18 8 L 18 7 L 10 7 z M 8 9 L 8 10 L 9 10 L 9 9 L 8 9 z M 10 9 L 10 10 L 18 10 L 18 9 L 10 9 z M 8 11 L 8 12 L 9 12 L 9 11 L 8 11 z M 10 11 L 10 12 L 15 12 L 15 11 L 10 11 z M 17 12 L 19.40625 12 L 24.59375 12 L 30 12 L 30 29 L 17 29 L 17 26.59375 A 0.50004995 0.50004995 0 0 0 17 26.5 L 17 21.46875 A 0.50004995 0.50004995 0 0 0 17 21.375 L 17 12 z M 17.84375 12.5 A 0.50004998 0.50004998 0 0 0 17.5 13 L 17.5 16 A 0.50004998 0.50004998 0 0 0 18 16.5 L 29 16.5 A 0.50004998 0.50004998 0 0 0 29.5 16 L 29.5 13 A 0.50004998 0.50004998 0 0 0 29 12.5 L 18 12.5 A 0.50004998 0.50004998 0 0 0 17.84375 12.5 z M 8 13 L 8 14 L 9 14 L 9 13 L 8 13 z M 10 13 L 10 14 L 15 14 L 15 13 L 10 13 z M 18.5 13.5 L 28.5 13.5 L 28.5 15.5 L 18.5 15.5 L 18.5 13.5 z M 11 15 L 11 16 L 15 16 L 15 15 L 11 15 z M 11 17 L 11 18 L 15 18 L 15 17 L 11 17 z M 18.40625 17 A 0.50004998 0.50004998 0 0 0 18 17.5 L 18 19.5 A 0.50004998 0.50004998 0 0 0 18.5 20 L 20.5 20 A 0.50004998 0.50004998 0 0 0 21 19.5 L 21 17.5 A 0.50004998 0.50004998 0 0 0 20.5 17 L 18.5 17 A 0.50004998 0.50004998 0 0 0 18.40625 17 z M 22.40625 17 A 0.50004998 0.50004998 0 0 0 22 17.5 L 22 19.5 A 0.50004998 0.50004998 0 0 0 22.5 20 L 24.5 20 A 0.50004998 0.50004998 0 0 0 25 19.5 L 25 17.5 A 0.50004998 0.50004998 0 0 0 24.5 17 L 22.5 17 A 0.50004998 0.50004998 0 0 0 22.40625 17 z M 26.40625 17 A 0.50004998 0.50004998 0 0 0 26 17.5 L 26 19.5 A 0.50004998 0.50004998 0 0 0 26.5 20 L 28.5 20 A 0.50004998 0.50004998 0 0 0 29 19.5 L 29 17.5 A 0.50004998 0.50004998 0 0 0 28.5 17 L 26.5 17 A 0.50004998 0.50004998 0 0 0 26.40625 17 z M 19 18 L 20 18 L 20 19 L 19 19 L 19 18 z M 23 18 L 24 18 L 24 19 L 23 19 L 23 18 z M 27 18 L 28 18 L 28 19 L 27 19 L 27 18 z M 18.40625 21 A 0.50004998 0.50004998 0 0 0 18 21.5 L 18 23.5 A 0.50004998 0.50004998 0 0 0 18.5 24 L 20.5 24 A 0.50004998 0.50004998 0 0 0 21 23.5 L 21 21.5 A 0.50004998 0.50004998 0 0 0 20.5 21 L 18.5 21 A 0.50004998 0.50004998 0 0 0 18.40625 21 z M 22.40625 21 A 0.50004998 0.50004998 0 0 0 22 21.5 L 22 23.5 A 0.50004998 0.50004998 0 0 0 22.5 24 L 24.5 24 A 0.50004998 0.50004998 0 0 0 25 23.5 L 25 21.5 A 0.50004998 0.50004998 0 0 0 24.5 21 L 22.5 21 A 0.50004998 0.50004998 0 0 0 22.40625 21 z M 26.40625 21 A 0.50004998 0.50004998 0 0 0 26 21.5 L 26 27.5 A 0.50004998 0.50004998 0 0 0 26.5 28 L 28.5 28 A 0.50004998 0.50004998 0 0 0 29 27.5 L 29 21.5 A 0.50004998 0.50004998 0 0 0 28.5 21 L 26.5 21 A 0.50004998 0.50004998 0 0 0 26.40625 21 z M 16 21.96875 L 16 26 L 6 26 C 4.3293509 26 3 24.6706 3 23 L 3 22 L 16 21.96875 z M 19 22 L 20 22 L 20 23 L 19 23 L 19 22 z M 23 22 L 24 22 L 24 23 L 23 23 L 23 22 z M 27 22 L 28 22 L 28 27 L 27 27 L 27 22 z M 18.40625 25 A 0.50004998 0.50004998 0 0 0 18 25.5 L 18 27.5 A 0.50004998 0.50004998 0 0 0 18.5 28 L 20.5 28 A 0.50004998 0.50004998 0 0 0 21 27.5 L 21 25.5 A 0.50004998 0.50004998 0 0 0 20.5 25 L 18.5 25 A 0.50004998 0.50004998 0 0 0 18.40625 25 z M 22.40625 25 A 0.50004998 0.50004998 0 0 0 22 25.5 L 22 27.5 A 0.50004998 0.50004998 0 0 0 22.5 28 L 24.5 28 A 0.50004998 0.50004998 0 0 0 25 27.5 L 25 25.5 A 0.50004998 0.50004998 0 0 0 24.5 25 L 22.5 25 A 0.50004998 0.50004998 0 0 0 22.40625 25 z M 19 26 L 20 26 L 20 27 L 19 27 L 19 26 z M 23 26 L 24 26 L 24 27 L 23 27 L 23 26 z " transform="translate(9.4430086e-4,1020.3622)" id="rect9111"/>
                </g>
              </g>
            </g>
          </g>
        </g>
      </g>
    </g>
  </g>

	
	
	
	<metadata>
		<rdf:RDF xmlns:rdf="http://www.w3.org/1999/02/22-rdf-syntax-ns#" xmlns:rdfs="http://www.w3.org/2000/01/rdf-schema#" xmlns:dc="http://purl.org/dc/elements/1.1/">
			<rdf:Description about="https://iconscout.com/legal#licenses" dc:title="Bill, Reciept, Amount, Calc, Calculation, Ecommerce, Finance, Data" dc:description="Bill, Reciept, Amount, Calc, Calculation, Ecommerce, Finance, Data" dc:publisher="Iconscout" dc:date="2016-12-14" dc:format="image/svg+xml" dc:language="en">
				<dc:creator>
					<rdf:Bag>
						<rdf:li>Mohit Gandhi</rdf:li>
					</rdf:Bag>
				</dc:creator>
			</rdf:Description>
		</rdf:RDF>
    </metadata></svg>
