<?xml version="1.0" encoding="UTF-8" standalone="no"?>
<svg xmlns:dc="http://purl.org/dc/elements/1.1/" xmlns:cc="http://creativecommons.org/ns#" xmlns:rdf="http://www.w3.org/1999/02/22-rdf-syntax-ns#" xmlns:svg="http://www.w3.org/2000/svg" xmlns="http://www.w3.org/2000/svg" xmlns:sodipodi="http://sodipodi.sourceforge.net/DTD/sodipodi-0.dtd" xmlns:inkscape="http://www.inkscape.org/namespaces/inkscape" width="32px" height="32px" viewBox="0 0 32 32.000001" id="svg2" version="1.1" inkscape:version="0.91 r13725" sodipodi:docname="222 office employee man woman lady team person people.svg">
  <defs id="defs4"/>
  <sodipodi:namedview id="base" pagecolor="#ffffff" bordercolor="#666666" borderopacity="1.0" inkscape:pageopacity="0.0" inkscape:pageshadow="2" inkscape:zoom="4" inkscape:cx="-81.774927" inkscape:cy="-6.2710521" inkscape:document-units="px" inkscape:current-layer="layer1" showgrid="true" units="px" inkscape:window-width="1366" inkscape:window-height="705" inkscape:window-x="-8" inkscape:window-y="-8" inkscape:window-maximized="1" inkscape:snap-bbox="true" inkscape:bbox-paths="true" inkscape:bbox-nodes="true" inkscape:snap-bbox-edge-midpoints="true" inkscape:snap-bbox-midpoints="true">
    <inkscape:grid type="xygrid" id="grid3470"/>
  </sodipodi:namedview>
  
  <g inkscape:label="Layer 1" inkscape:groupmode="layer" id="layer1" transform="translate(0,-1020.3622)">
    <path style="color:#000000;font-style:normal;font-variant:normal;font-weight:normal;font-stretch:normal;font-size:medium;line-height:normal;font-family:Sans;-inkscape-font-specification:Sans;text-indent:0;text-align:start;text-decoration:none;text-decoration-line:none;letter-spacing:normal;word-spacing:normal;text-transform:none;direction:ltr;block-progression:tb;writing-mode:lr-tb;baseline-shift:baseline;text-anchor:start;display:inline;overflow:visible;visibility:visible;fill:
		#000000;fill-opacity:1;stroke:none;stroke-width:1;marker:none;enable-background:accumulate" d="M 22.001953 5 C 18.703043 5 16.001953 7.54565 16.001953 10.71875 L 16.001953 20.357422 L 14 19.21875 L 14 16.84375 C 14.616001 16.06885 15 15.0734 15 14 L 15 12.65625 C 15.03232 12.55545 15.03232 12.44445 15 12.34375 L 15 11.28125 C 14.99949 11.33225 15 11.337 15 11.25 L 15 8.3125 L 15 8.28125 L 15 8.25 C 14.90106 7.4901 14.669702 6.80655 14.21875 6.28125 C 13.767798 5.75605 13.089519 5.4336 12.28125 5.4375 L 11.8125 5.4375 L 11.78125 5.90625 C 11.77092 6.06435 11.69302 6.16695 11.53125 6.28125 C 11.376688 6.39055 11.147408 6.4806 10.9375 6.5 L 10.90625 6.5 L 8.71875 6.5 C 7.215708 6.5 6 7.7382 6 9.25 L 6 11.25 L 6 11.28125 L 6 12.0625 C 5.97894 12.1445 5.97894 12.231 6 12.3125 L 6 14 C 6 15.0734 6.383997 16.06875 7 16.84375 L 7 19.21875 L 2.0625 22.03125 C 0.781751 22.76305 0 24.11855 0 25.59375 L 0 29 L 0 29.5 L 0 30 L 21 30 L 31.001953 30 L 31.001953 29 L 31.001953 25.3125 C 31.001953 25.2885 31.00235 25.25075 31.001953 25.21875 C 30.987953 24.08655 30.508279 23.0115 29.689453 22.3125 C 29.44277 22.1018 29.115563 21.9319 28.908203 21.8125 L 28.001953 21.28125 L 28.001953 10.71875 C 28.001953 8.57685 26.75117 6.69435 24.939453 5.71875 C 24.811585 5.64975 24.698605 5.59145 24.564453 5.53125 C 24.449705 5.48025 24.312884 5.4213 24.189453 5.375 C 23.507798 5.1198 22.777796 5 22.001953 5 z M 22.001953 6 C 22.65795 6 23.275158 6.099 23.845703 6.3125 C 23.946272 6.3505 24.056511 6.3925 24.158203 6.4375 C 24.269511 6.4875 24.363631 6.53645 24.470703 6.59375 C 25.983246 7.40835 27.001953 8.95835 27.001953 10.71875 L 27.001953 20.71875 L 25.376953 19.78125 C 24.907226 19.51095 24.626953 19.0279 24.626953 18.5 L 24.626953 17.25 C 24.705553 17.167 24.804746 17.0888 24.876953 17 C 25.581434 16.1334 26.001953 15.01945 26.001953 13.90625 L 26.001953 11.53125 C 26.001866 11.54425 26.001953 11.551 26.001953 11.5 L 26.001953 10.46875 C 26.009353 10.23485 25.853542 10.02715 25.626953 9.96875 C 24.942091 9.80805 24.312164 9.62005 23.876953 9.28125 C 23.865893 9.27125 23.856993 9.258 23.845703 9.25 C 23.787983 9.217 23.724239 9.1974531 23.658203 9.1894531 C 23.628063 9.1754531 23.596663 9.1652031 23.564453 9.1582031 C 23.419472 9.1012031 23.280691 9.0333031 23.126953 9.0332031 C 22.869284 9.0332031 22.5934 9.1232031 22.376953 9.2832031 C 22.368853 9.2932031 22.353733 9.2732031 22.345703 9.2832031 C 22.111734 9.4518031 21.454781 9.5809031 20.720703 9.5957031 C 19.973003 9.6107031 19.16407 9.5644531 18.533203 9.5644531 C 18.279743 9.5644531 18.064901 9.7504532 18.033203 10.001953 L 18.001953 10.283203 C 18.000653 10.304203 18.000653 10.325703 18.001953 10.345703 L 18.001953 11.501953 L 18.001953 11.53125 L 18.001953 13.90625 C 18.001953 15.01935 18.422475 16.1334 19.126953 17 C 19.199163 17.089 19.298353 17.1665 19.376953 17.25 L 19.376953 18 C 19.376953 18.8266 18.921714 19.60965 18.189453 20.03125 L 17.001953 20.71875 L 17.001953 10.71875 C 17.001953 8.11095 19.212663 6 22.001953 6 z M 12.4375 6.5 C 12.880754 6.537 13.230942 6.6605 13.46875 6.9375 C 13.742278 7.2561 13.917501 7.7413 14 8.375 L 14 11.25 L 14 11.28125 L 14 11.40625 C 13.796611 11.31325 13.587611 11.2267 13.375 11.1875 C 12.779689 11.078 12.172461 11.098 11.59375 11.125 C 11.015039 11.149 10.438737 11.15225 10 11.03125 C 9.561263 10.91005 9.22845 10.72255 8.9375 10.21875 C 8.833565 10.02365 8.589437 9.91515 8.375 9.96875 C 8.204801 10.02075 8.068041 10.16965 8.03125 10.34375 C 8.04941 10.27575 7.97934 10.43275 7.84375 10.59375 C 7.708158 10.75425 7.509794 10.949 7.3125 11.125 C 7.201712 11.224 7.105407 11.2945 7 11.375 L 7 11.28125 L 7 11.25 L 7 9.25 C 7 8.2682 7.759132 7.5 8.71875 7.5 L 10.9375 7.5 L 10.96875 7.5 C 11.361439 7.474 11.750213 7.33655 12.09375 7.09375 C 12.272466 6.96725 12.316474 6.7022 12.4375 6.5 z M 23.126953 10.027344 L 23.126953 10.029297 C 23.175913 10.029297 23.209253 10.029847 23.251953 10.060547 C 23.272033 10.072547 23.292913 10.082797 23.314453 10.091797 C 23.334533 10.103797 23.355413 10.114047 23.376953 10.123047 C 23.397033 10.135047 23.417913 10.145297 23.439453 10.154297 C 23.447553 10.164297 23.462553 10.144297 23.470703 10.154297 C 23.943138 10.470897 24.469465 10.665294 25.001953 10.808594 L 25.001953 11.496094 C 25.001953 11.459094 25.0022 11.486394 25.001953 11.527344 L 25.001953 13.902344 C 25.001953 14.750144 24.656512 15.679341 24.095703 16.369141 C 23.534894 17.058941 22.787889 17.494141 22.001953 17.494141 C 21.216034 17.494141 20.46902 17.059041 19.908203 16.369141 C 19.347386 15.680141 19.001953 14.750044 19.001953 13.902344 L 19.001953 11.527344 L 19.001953 11.496094 L 19.001953 10.558594 C 19.525487 10.574594 20.107739 10.602844 20.751953 10.589844 C 21.56868 10.573844 22.368802 10.524944 22.970703 10.056641 C 23.013433 10.023641 23.077997 10.027344 23.126953 10.027344 z M 8.65625 11.15625 C 9.006724 11.49555 9.33206 11.8846 9.75 12 C 10.383542 12.1749 11.030247 12.1499 11.625 12.125 C 12.219753 12.1 12.774324 12.08025 13.1875 12.15625 C 13.557404 12.22425 13.801029 12.36525 14 12.65625 L 14 14 C 14 15.9792 12.444529 17.53125 10.5 17.53125 C 8.555482 17.53125 7 15.9792 7 14 L 7 12.59375 C 7.09881 12.54575 7.183459 12.46835 7.28125 12.40625 C 7.517058 12.25645 7.739791 12.0794 7.96875 11.875 C 8.197709 11.6707 8.418525 11.4575 8.59375 11.25 C 8.61932 11.22 8.63217 11.18525 8.65625 11.15625 z M 8 17.8125 C 8.711288 18.2861 9.58181 18.53125 10.5 18.53125 C 11.418194 18.53125 12.288712 18.2861 13 17.8125 L 13 19.5 L 13 19.71875 C 12.597176 20.47305 12.24084 21.26705 11.34375 22.03125 L 11.3125 22.0625 L 10.5 22.8125 L 9.75 22.0625 L 9.6875 22 C 8.987998 21.2448 8.32794 20.3512 8 19.5 L 8 17.8125 z M 20.376953 18.0625 C 20.873248 18.3419 21.410605 18.5 22.001953 18.5 C 22.593292 18.5 23.130656 18.3419 23.626953 18.0625 L 23.626953 18.5 C 23.626953 19.3877 24.10352 20.21125 24.876953 20.65625 L 25.626953 21.09375 C 25.626627 21.10375 25.626627 21.115 25.626953 21.125 C 25.626953 23.1598 23.976403 24.8125 21.939453 24.8125 C 21.574898 24.8125 21.22904 24.74507 20.896484 24.646484 C 20.655211 23.570625 19.976367 22.62041 19 22.0625 L 18.306641 21.667969 C 18.279998 21.489242 18.251953 21.31109 18.251953 21.125 L 18.689453 20.875 C 19.706869 20.2892 20.354291 19.2244 20.376953 18.0625 z M 6.625 20.59375 L 6 22.8125 L 6 22.84375 L 6 22.875 C 5.90595 23.6531 6.750544 24.30945 7.46875 23.96875 L 7.46875 23.9375 L 9.3125 23.03125 L 10 23.6875 L 10 29 L 5 29 L 5 26.5 L 4 26.5 L 4 29 L 1 29 L 1 25.59375 C 1 24.47585 1.591869 23.4297 2.5625 22.875 L 6.625 20.59375 z M 7.625 20.59375 C 7.945021 21.17005 8.262261 21.72445 8.6875 22.21875 L 7.03125 23.0625 C 6.99332 23.0805 6.98977 23.084 7 23 L 7.625 20.59375 z M 14.53125 20.65625 L 18.5 22.9375 C 19.418738 23.4625 20 24.4418 20 25.5 L 20 29 L 17.03125 29 L 17.03125 26.5 L 16.03125 26.5 L 16.03125 29 L 11 29 L 11 23.71875 L 11.75 23.03125 L 13.71875 23.96875 C 14.446782 24.29865 15.287889 23.668 15.1875 22.875 L 15.1875 22.8125 L 15.1875 22.78125 C 15.1875 22.78125 14.9104 21.93765 14.65625 21.09375 C 14.60832 20.93455 14.57763 20.80815 14.53125 20.65625 z M 13.53125 20.8125 C 13.58883 21.0115 13.6251 21.19905 13.6875 21.40625 C 13.930579 22.21345 14.160204 22.9147 14.1875 23 C 14.1961 23.068 14.187348 23.089547 14.125 23.060547 L 12.4375 22.248047 C 12.901081 21.740647 13.28507 21.2696 13.53125 20.8125 z M 26.564453 21.625 L 28.408203 22.6875 C 28.603543 22.7999 28.927906 23.00375 29.033203 23.09375 C 29.616797 23.59185 29.991374 24.36325 30.001953 25.21875 C 30.002176 25.23675 30.001953 25.2875 30.001953 25.3125 L 30.001953 29 L 28.095703 29 L 28.095703 27.40625 L 27.095703 27.40625 L 27.095703 29 L 21 29 L 21 25.710938 C 21.303578 25.773518 21.617128 25.8125 21.939453 25.8125 C 24.349717 25.8125 26.31549 23.9713 26.564453 21.625 z M 12 25.5 C 11.723858 25.5 11.5 25.7239 11.5 26 C 11.5 26.2762 11.723858 26.5 12 26.5 C 12.276142 26.5 12.5 26.2762 12.5 26 C 12.5 25.7239 12.276142 25.5 12 25.5 z M 12 27.5 C 11.723858 27.5 11.5 27.7239 11.5 28 C 11.5 28.2762 11.723858 28.5 12 28.5 C 12.276142 28.5 12.5 28.2762 12.5 28 C 12.5 27.7239 12.276142 27.5 12 27.5 z " transform="translate(0,1020.3622)" id="path10646"/>
  </g>
</svg>
