<?xml version="1.0" encoding="UTF-8" standalone="no"?>
<svg xmlns:dc="http://purl.org/dc/elements/1.1/" xmlns:cc="http://creativecommons.org/ns#" xmlns:rdf="http://www.w3.org/1999/02/22-rdf-syntax-ns#" xmlns:svg="http://www.w3.org/2000/svg" xmlns="http://www.w3.org/2000/svg" xmlns:sodipodi="http://sodipodi.sourceforge.net/DTD/sodipodi-0.dtd" xmlns:inkscape="http://www.inkscape.org/namespaces/inkscape" width="32px" height="32px" viewBox="0 0 32 32.000001" id="svg4670" version="1.1" inkscape:version="0.91 r13725" sodipodi:docname="55.svg">
  <defs id="defs4672"/>
  <sodipodi:namedview id="base" pagecolor="#ffffff" bordercolor="#666666" borderopacity="1.0" inkscape:pageopacity="0.0" inkscape:pageshadow="2" inkscape:zoom="8" inkscape:cx="13.515993" inkscape:cy="2.3361695" inkscape:document-units="px" inkscape:current-layer="g4544" showgrid="true" units="px" inkscape:snap-bbox="true" inkscape:bbox-nodes="true" inkscape:bbox-paths="true" inkscape:snap-bbox-edge-midpoints="true" inkscape:snap-bbox-midpoints="true" inkscape:window-width="1366" inkscape:window-height="705" inkscape:window-x="-8" inkscape:window-y="-8" inkscape:window-maximized="1" showguides="false">
    <inkscape:grid type="xygrid" id="grid4678"/>
  </sodipodi:namedview>
  
  <g inkscape:label="Layer 1" inkscape:groupmode="layer" id="layer1" transform="translate(0,-1020.3622)">
    <g transform="translate(275.99997,-37.000012)" id="g5627">
      <g id="g5001" transform="translate(-275.99997,39.000012)">
        <g id="g4544" transform="translate(117.36766,-234.0012)">
          <path style="color:#000000;font-style:normal;font-variant:normal;font-weight:normal;font-stretch:normal;font-size:medium;line-height:normal;font-family:sans-serif;text-indent:0;text-align:start;text-decoration:none;text-decoration-line:none;text-decoration-style:solid;text-decoration-color:#000000;letter-spacing:normal;word-spacing:normal;text-transform:none;direction:ltr;block-progression:tb;writing-mode:lr-tb;baseline-shift:baseline;text-anchor:start;white-space:normal;clip-rule:nonzero;display:inline;overflow:visible;visibility:visible;opacity:1;isolation:auto;mix-blend-mode:normal;color-interpolation:sRGB;color-interpolation-filters:linearRGB;solid-color:#000000;solid-opacity:1;fill:#000000;fill-opacity:1;fill-rule:nonzero;stroke:none;stroke-width:1;stroke-linecap:round;stroke-linejoin:round;stroke-miterlimit:4;stroke-dasharray:none;stroke-dashoffset:0;stroke-opacity:1;color-rendering:auto;image-rendering:auto;shape-rendering:auto;text-rendering:auto;enable-background:accumulate" d="M 22 1.0058594 L 22 5.0058594 L 4.5 5.0058594 L 2.5 5.0058594 C 1.12365 5.0058594 0 6.1295594 0 7.5058594 L 0 26.505859 A 0.50005 0.50005 0 0 0 0.009765625 26.607422 C 0.064596816 27.936027 1.1584429 29.005859 2.5 29.005859 L 4 29.005859 L 4 25.005859 L 21.5 25.005859 L 23.5 25.005859 C 24.876352 25.005859 26 23.882259 26 22.505859 L 26 5.5058594 L 26 3.5058594 C 26 2.1295594 24.876352 1.0058594 23.5 1.0058594 L 22 1.0058594 z M 23 2.0058594 L 23.5 2.0058594 C 24.339649 2.0058594 25 2.6662594 25 3.5058594 L 25 5.5058594 L 25 20.628906 C 24.573344 20.290306 24.084528 20.005859 23.5 20.005859 L 23 20.005859 L 23 2.0058594 z M 2.5 6.0058594 L 4.5 6.0058594 L 22 6.0058594 L 22 21.005859 L 23.5 21.005859 C 24.339649 21.005859 25 21.666259 25 22.505859 C 25 23.345559 24.339649 24.005859 23.5 24.005859 L 21.5 24.005859 L 2.7675781 24.005859 L 2.5 24.005859 C 1.9348036 24.005859 1.4196574 24.202822 1 24.521484 L 1 7.5058594 C 1 6.6662594 1.66035 6.0058594 2.5 6.0058594 z M 27.5 6.0058594 A 0.50004994 0.50004994 0 0 0 27 6.5058594 L 27 24.505859 A 0.50004994 0.50004994 0 0 0 27.5 25.005859 L 31.5 25.005859 A 0.50004994 0.50004994 0 0 0 32 24.505859 L 32 6.5058594 A 0.50004994 0.50004994 0 0 0 31.5 6.0058594 L 27.5 6.0058594 z M 28 7.0058594 L 31 7.0058594 L 31 24.005859 L 28 24.005859 L 28 23.005859 L 30 23.005859 L 30 22.005859 L 28 22.005859 L 28 21.005859 L 29 21.005859 L 29 20.005859 L 28 20.005859 L 28 19.005859 L 30 19.005859 L 30 18.005859 L 28 18.005859 L 28 17.005859 L 29 17.005859 L 29 16.005859 L 28 16.005859 L 28 15.005859 L 30 15.005859 L 30 14.005859 L 28 14.005859 L 28 13.005859 L 29 13.005859 L 29 12.005859 L 28 12.005859 L 28 11.005859 L 30 11.005859 L 30 10.005859 L 28 10.005859 L 28 9.0058594 L 29 9.0058594 L 29 8.0058594 L 28 8.0058594 L 28 7.0058594 z M 4.5 8.0058594 A 0.50004997 0.50004997 0 0 0 4 8.5058594 L 4 21.505859 A 0.50004997 0.50004997 0 0 0 4.5 22.005859 L 19.5 22.005859 A 0.50004997 0.50004997 0 0 0 20 21.505859 L 20 8.5058594 A 0.50004997 0.50004997 0 0 0 19.5 8.0058594 L 9 8.0058594 L 9 9.0058594 L 11 9.0058594 L 11 12.007812 L 12 12.007812 L 12 9.0058594 L 19 9.0058594 L 19 15.005859 L 16 15.005859 L 16 11.005859 L 15 11.005859 L 15 15.005859 L 13 15.005859 L 13 16.005859 L 19 16.005859 L 19 21.005859 L 18 21.005859 L 18 17.505859 A 0.50004997 0.50004997 0 0 0 17.5 17.005859 L 13.5 17.005859 A 0.50004997 0.50004997 0 0 0 13 17.505859 L 13 21.005859 L 12 21.005859 L 12 14.056641 L 11 14.056641 L 11 21.005859 L 5 21.005859 L 5 17.005859 L 9 17.005859 L 9 16.005859 L 5 16.005859 L 5 9.0058594 L 7 9.0058594 L 7 8.0058594 L 4.5 8.0058594 z M 14 18.005859 L 17 18.005859 L 17 21.005859 L 14 21.005859 L 14 18.005859 z M 2.5 25.005859 L 2.7675781 25.005859 L 3 25.005859 L 3 28.005859 L 2.5 28.005859 C 1.66035 28.005859 1 27.345559 1 26.505859 C 1 25.666259 1.66035 25.005859 2.5 25.005859 z M 10.476562 25.980469 A 0.50005006 0.50005006 0 0 0 10.265625 26.035156 L 7.2910156 27.566406 A 0.50005006 0.50005006 0 0 0 7.2949219 28.457031 L 10.279297 29.966797 A 0.50005006 0.50005006 0 0 0 10.521484 30.021484 A 0.50004991 0.50004991 0 0 0 10.533203 30.021484 L 19.003906 30.021484 A 0.50004991 0.50004991 0 0 0 19.054688 30.019531 L 20.134766 30.019531 C 21.109769 30.019531 21.980694 29.3234 21.976562 28.375 L 21.972656 27.617188 C 21.968556 26.664687 21.087328 25.982275 20.121094 25.984375 L 19.042969 25.984375 A 0.50004991 0.50004991 0 0 0 18.990234 25.982422 L 18.990234 25.980469 L 10.666016 26.011719 A 0.50005006 0.50005006 0 0 0 10.476562 25.980469 z M 18.494141 26.980469 L 18.494141 26.982422 L 18.496094 27.529297 L 11.025391 27.509766 L 11.023438 27.007812 L 18.494141 26.980469 z M 19.496094 26.984375 L 20.121094 26.984375 A 0.50005024 0.50005024 0 0 0 20.123047 26.984375 C 20.631002 26.984375 20.971335 27.312594 20.972656 27.621094 L 20.976562 28.378906 C 20.977963 28.692106 20.652419 29.019531 20.134766 29.019531 L 19.505859 29.019531 L 19.496094 26.984375 z M 9.9980469 27.296875 L 10.001953 28.705078 L 8.6210938 28.005859 L 9.9980469 27.296875 z M 11.029297 28.509766 L 18.5 28.529297 L 18.501953 29.019531 L 11.03125 29.019531 L 11.029297 28.509766 z " transform="translate(-117.36766,1252.3634)" id="path5320"/>
        </g>
      </g>
    </g>
  </g>

	
	
	<metadata>
		<rdf:RDF xmlns:rdf="http://www.w3.org/1999/02/22-rdf-syntax-ns#" xmlns:rdfs="http://www.w3.org/2000/01/rdf-schema#" xmlns:dc="http://purl.org/dc/elements/1.1/">
			<rdf:Description about="https://iconscout.com/legal#licenses" dc:title="Elevation, Job, Plan, Home, House, Interior, Architect, View" dc:description="Elevation, Job, Plan, Home, House, Interior, Architect, View" dc:publisher="Iconscout" dc:date="2016-12-14" dc:format="image/svg+xml" dc:language="en">
				<dc:creator>
					<rdf:Bag>
						<rdf:li>Chamestudio</rdf:li>
					</rdf:Bag>
				</dc:creator>
			</rdf:Description>
		</rdf:RDF>
    </metadata></svg>
