<svg width="32" height="32" xmlns="http://www.w3.org/2000/svg">

 <metadata>Mohit Gandhi</metadata>
 <g>
  <title>background</title>
  <rect fill="none" id="canvas_background" height="34" width="34" y="-1" x="-1"/>
 </g>
 <g>
  <title>Layer 1</title>
  <g id="layer1">
   <path fill="#000000" id="path3979" d="m16,0.000017c-8.79773,0 -16,7.2023 -16,16c0,8.7977 7.20227,16 16,16c8.79773,0 16,-7.2023 16,-16c0,-8.8915 -7.20606,-16 -16,-16zm0,1c8.25606,0 15,6.6478 15,15c0,3.1829 -1.01197,6.1281 -2.71875,8.5625c0,-0.6167 -0.30686,-1.1298 -0.6875,-1.5c-0.38064,-0.3702 -0.84976,-0.6561 -1.25,-0.9062a0.50005,0.50005 0 0 0 -0.0312,0c-2.31153,-1.2842 -4.7817,-2.4309 -6.375,-3.1563c0.43796,-0.569 0.81548,-1.2072 1.0625,-1.9062c0.58323,-0.059 1.07889,-0.4128 1.375,-0.9063c0.32303,-0.5384 0.46875,-1.2106 0.46875,-1.9375c0,-0.4672 -0.10972,-0.9117 -0.25,-1.3125c0.47418,-1.1228 0.73435,-2.2985 0.71875,-3.4687c-0.0266,-1.9962 -0.86031,-3.9194 -2.5625,-5.3125l0,-0.031c-1.32092,-1.1031 -2.98046,-1.8753 -4.625,-2.0625c-1.65295,-0.1881 -3.34432,0.2382 -4.46875,1.5313c-0.50047,0.5838 -1.34309,0.9577 -2.03125,1.5312a0.50005,0.50005 0 0 0 -0.0313,0.031c-1.97801,1.978 -2.06192,4.941 -1.09375,7.4687c-0.22956,0.4902 -0.34375,1.0724 -0.34375,1.6875c0,0.7397 0.1975,1.4065 0.53125,1.9375c0.28882,0.4595 0.70378,0.8097 1.21875,0.9063c0.30385,0.8332 0.75038,1.5771 1.3125,2.2187c-1.35082,0.6361 -3.30891,1.5879 -6.03125,3.0625a0.50005,0.50005 0 0 0 0,0.031c-0.49971,0.2776 -0.88157,0.6032 -1.125,1.0312c-0.18983,0.3337 -0.27643,0.7166 -0.3125,1.125c-1.73109,-2.4451 -2.75,-5.4173 -2.75,-8.625c0,-8.2523 6.74773,-15 15,-15l0,0.0003zm-1.03125,2.0313c0.33224,-0.025 0.67574,-0.01 1.03125,0.031c1.42205,0.1619 2.9491,0.856 4.125,1.8438c1.48404,1.2057 2.16422,2.8477 2.1875,4.5937c0.0161,1.2041 -0.3731,2.4058 -0.96875,3.5625l0,-0.125c0.00048,-0.011 -0.00039,-0.02 0,-0.031c0.0455,-1.2916 -0.53689,-2.3787 -1.40625,-3.0938c-0.87677,-0.7212 -2.02639,-1.0937 -3.1875,-1.0937l-3.3125,0c-0.90882,0 -1.83345,0.1413 -2.59375,0.5c-0.7603,0.3586 -1.40625,1.0254 -1.40625,1.9062l0,0.7813c-0.72047,-2.1505 -0.67218,-4.4545 0.84375,-6c0.008,-0.01 0.02285,-0.024 0.03125,-0.031c0.51726,-0.4194 1.43674,-0.822 2.125,-1.625c0.65668,-0.7552 1.53453,-1.1435 2.53125,-1.2187l0,-0.0003zm-2.125,6.6875c0.19512,-0.017 0.39596,0 0.59375,0l3.3125,0c0.93889,0 1.88927,0.3212 2.5625,0.875c0.67323,0.5537 1.07446,1.2873 1.03125,2.2812a0.50005,0.50005 0 0 0 0,0.031l0,2a0.50005,0.50005 0 0 0 0.90625,0.3125c0.21859,-0.2691 0.40868,-0.5575 0.59375,-0.8438c-0.0196,0.518 -0.15722,0.9704 -0.34375,1.2813c-0.20197,0.3366 -0.40995,0.4687 -0.65625,0.4687a0.50005,0.50005 0 0 0 -0.0312,0a0.50005,0.50005 0 0 0 -0.0312,0a0.50005,0.50005 0 0 0 -0.0312,0a0.50005,0.50005 0 0 0 -0.21875,0a0.50005,0.50005 0 0 0 -0.34375,0.375c-0.30708,1.0752 -0.98439,2.0448 -1.78125,2.7813c-0.98692,0.9121 -2.1977,1.4375 -2.96875,1.4375c-0.70264,0 -1.76196,-0.4478 -2.6875,-1.2188c-0.88569,-0.7378 -1.6455,-1.7521 -2,-2.9062a0.50438,0.50438 0 0 0 -0.46875,-0.375a0.50005,0.50005 0 0 0 -0.0625,0a0.50438,0.50438 0 0 0 -0.03125,0a0.50005,0.50005 0 0 0 -0.03125,0c-0.17083,0 -0.40875,-0.156 -0.625,-0.5c-0.21625,-0.3441 -0.375,-0.846 -0.375,-1.4063c0,-0.099 0.02361,-0.1869 0.03125,-0.2812c0.10749,0.1843 0.22619,0.3861 0.34375,0.5625a0.50005,0.50005 0 0 0 0.90625,-0.2813l0,-2.375l0,-0.8125c0,-0.4192 0.27905,-0.7336 0.84375,-1c0.42353,-0.1998 0.97715,-0.3544 1.5625,-0.4062l-0.00015,0.0003zm6.875,10.3125c1.58473,0.7223 3.91038,1.7887 6.09375,3c0.009,0.01 0.0221,0 0.0312,0c0.39177,0.2451 0.76718,0.4931 1.03125,0.75c0.26936,0.2619 0.40625,0.4979 0.40625,0.7812l0,1.1875a0.50005,0.50005 0 0 0 0,0.062a0.50005,0.50005 0 0 0 0,0.031c-2.75448,3.1448 -6.79601,5.1562 -11.28125,5.1562c-4.4935,0 -8.52644,-2.0326 -11.28125,-5.1875l0,-0.8437c0,-0.45 0.0872,-0.7375 0.21875,-0.9688c0.12586,-0.2213 0.35113,-0.445 0.71875,-0.6562c0.0167,-0.01 0.01395,-0.022 0.03125,-0.031c2.59382,-1.4036 4.47567,-2.3372 5.8125,-2.9687c0.0037,0.2354 0.04698,0.4567 0.09375,0.6875c0.43667,2.1544 2.61432,3.5782 4.84375,3.1562c2.04747,-0.3875 3.40548,-2.1969 3.28125,-4.1562l0.00005,0.0005zm-0.96875,0.2187c0.005,1.4121 -1.01032,2.6868 -2.5,2.9688c-1.68992,0.3198 -3.32525,-0.7419 -3.65625,-2.375c-0.0171,-0.084 -0.0218,-0.1653 -0.0312,-0.25c0.94301,0.6858 1.94579,1.125 2.875,1.125c1.07106,0 2.25619,-0.5816 3.3125,-1.4688l-0.00005,0z"/>
  </g>
 </g>
</svg>