<?xml version="1.0" encoding="utf-8"?>
<svg xmlns="http://www.w3.org/2000/svg" xmlns:xlink="http://www.w3.org/1999/xlink" version="1.1" id="Layer_1" x="0px" y="0px" viewBox="0 0 48 48" style="enable-background:new 0 0 48 48;" xml:space="preserve">
<style type="text/css">
	.st0{fill:#010101;}
	.st1{fill:#060707;}
</style>
<g id="XMLID_82_">
	<ellipse id="XMLID_83_" class="st1" cx="33" cy="36.9" rx="1" ry="1" style="fill: #060707;"/>
	
		<ellipse id="XMLID_86_" transform="matrix(0.3148 -0.9492 0.9492 0.3148 6.7054 34.5085)" class="st1" cx="27.3" cy="12.6" rx="2" ry="2" style="fill: #060707;"/>
	<path id="XMLID_118_" class="st1" d="M38,19.9h-0.5l3.4-10.1c0.5-1.6-0.3-3.3-1.9-3.8L21.9,0.3c-1.5-0.5-3,0.2-3.7,1.6   c-0.1,0-0.1,0-0.2,0c0,0,0,0,0,0l-10,0c-0.8,0-1.6,0.3-2.1,0.9C5.3,3.3,5,4.1,5,4.9l0.1,19c0,0.1,0,0.1,0,0.1C5,24.3,5,24.6,5,24.9   v18c0,2.8,2.2,5,5,5h28c2.8,0,5-2.2,5-5v-18C43,22.1,40.8,19.9,38,19.9z M41,39.9h-8.1c-1.6,0-2.9-1.3-2.9-3s1.3-3,2.9-3H41V39.9z    M21.2,2.2l17.1,5.7c0.3,0.1,0.5,0.3,0.6,0.5C39,8.6,39,8.9,38.9,9.1l-3.6,10.8h-2.1l2.2-6.6c0.1-0.3,0.1-0.5-0.1-0.8   c-0.1-0.2-0.3-0.4-0.6-0.5c-1-0.3-1.6-1.5-1.3-2.5c0.2-0.5-0.1-1.1-0.6-1.3l-7.6-2.5c-0.3-0.1-0.5-0.1-0.8,0.1   c-0.2,0.1-0.4,0.3-0.5,0.6c-0.3,1-1.5,1.6-2.5,1.3c-0.5-0.2-1.1,0.1-1.3,0.6l-3.9,11.7h-2.1L20,2.8C20.1,2.3,20.7,2,21.2,2.2z    M18.5,19.9l3.4-10.2c1.5,0.1,2.8-0.6,3.6-1.8l5.9,2c-0.1,1.4,0.6,2.8,1.8,3.6l-2.1,6.4H18.5z M11,19.9l0-9.1   c1.4-0.4,2.5-1.5,2.9-2.9l2.3,0l-4,12H11z M7.3,4.2C7.5,4,7.7,3.9,8,3.9l9.5,0l-0.7,2l-3.8,0c0,0,0,0,0,0c-0.3,0-0.5,0.1-0.7,0.3   C12.1,6.3,12,6.6,12,6.8c0,1.1-0.9,2-2,2c-0.6,0-1,0.4-1,1L9,20c-0.7,0.1-1.4,0.5-2,0.9l0-16C7,4.6,7.1,4.4,7.3,4.2z M41,42.9   c0,1.7-1.3,3-3,3H10c-1.7,0-3-1.3-3-3v-18c0-1.7,1.3-3,3-3h0c0,0,0,0,0,0H38c1.7,0,3,1.3,3,3v7h-8.1c-2.7,0-4.9,2.2-4.9,5   s2.2,5,4.9,5H41V42.9z" style="fill: #060707;"/>
</g>

	<metadata>
		<rdf:RDF xmlns:rdf="http://www.w3.org/1999/02/22-rdf-syntax-ns#" xmlns:rdfs="http://www.w3.org/2000/01/rdf-schema#" xmlns:dc="http://purl.org/dc/elements/1.1/">
			<rdf:Description about="https://iconscout.com/legal#licenses" dc:title="39 wallet money cash  payment Transaction bank transfer activity" dc:description="39 wallet money cash  payment Transaction bank transfer activity" dc:publisher="Iconscout" dc:date="2017-03-06" dc:format="image/svg+xml" dc:language="en">
				<dc:creator>
					<rdf:Bag>
						<rdf:li>Jemis Mali</rdf:li>
					</rdf:Bag>
				</dc:creator>
			</rdf:Description>
		</rdf:RDF>
    </metadata></svg>
